<?xml version="1.0" standalone="no"?>
<!DOCTYPE svg PUBLIC "-//W3C//DTD SVG 20010904//EN"
 "http://www.w3.org/TR/2001/REC-SVG-20010904/DTD/svg10.dtd">
<svg version="1.0" xmlns="http://www.w3.org/2000/svg"
 width="604.000000pt" height="604.000000pt" viewBox="0 0 604.000000 604.000000"
 preserveAspectRatio="xMidYMid meet">

<g transform="translate(0.000000,604.000000) scale(0.100000,-0.100000)"
fill="#000000" stroke="none">
<path d="M2835 5844 c-171 -31 -327 -94 -477 -195 -269 -181 -472 -481 -546
-809 -28 -122 -34 -167 -40 -310 l-7 -155 -225 -6 c-124 -3 -241 -11 -260 -16
-57 -17 -123 -45 -152 -65 -14 -10 -31 -18 -37 -18 -6 0 -48 -37 -94 -82 -89
-88 -140 -167 -179 -279 l-23 -64 -3 -1620 c-3 -1610 -2 -1682 29 -1770 51
-142 169 -295 269 -349 14 -7 41 -22 60 -33 19 -10 69 -30 110 -44 l75 -24
1680 0 c1374 0 1689 2 1730 13 261 70 448 270 495 527 8 42 10 541 8 1680 l-3
1620 -23 64 c-39 112 -90 191 -179 279 -46 45 -88 82 -94 82 -6 0 -23 8 -37
18 -29 20 -95 48 -152 65 -19 5 -132 13 -250 16 l-215 6 -7 155 c-7 144 -13
191 -40 310 -102 452 -453 841 -873 968 -169 51 -377 65 -540 36z m400 -458
c262 -73 502 -308 586 -574 11 -37 25 -80 30 -97 6 -16 13 -101 16 -187 l6
-158 -843 0 -843 0 6 158 c3 86 10 171 16 187 5 17 17 55 26 87 16 57 80 187
118 243 38 55 171 187 227 225 74 50 174 97 246 114 33 8 68 17 79 20 43 11
271 -2 330 -18z m-12 -1636 l647 0 0 -142 c0 -134 -1 -143 -24 -173 -55 -71
-71 -124 -71 -225 1 -79 5 -103 25 -145 37 -77 113 -147 184 -169 212 -67 406
87 406 321 0 78 -26 155 -75 219 -24 31 -25 40 -25 164 l0 132 38 -7 c75 -13
193 -117 235 -207 62 -132 58 -32 55 -1419 l-3 -1264 -33 -57 c-38 -67 -105
-125 -182 -159 l-55 -24 -1259 -3 -1259 -3 -66 22 c-150 49 -245 148 -300 315
-20 61 -20 85 -22 1312 -1 1240 -1 1250 20 1296 40 91 165 186 264 201 l47 7
0 -137 c0 -130 -1 -138 -25 -169 -112 -147 -98 -356 32 -478 49 -46 102 -69
173 -75 99 -8 170 16 235 82 78 77 99 130 99 245 1 82 -3 103 -25 150 -14 30
-36 64 -48 74 -20 18 -21 28 -21 166 0 81 3 150 8 155 4 4 90 5 192 1 102 -3
476 -6 833 -6z"/>
<path d="M2186 2255 c-114 -40 -181 -184 -144 -309 17 -56 100 -141 153 -155
94 -26 163 -7 230 62 78 80 96 176 51 272 -54 118 -174 171 -290 130z"/>
<path d="M3746 2255 c-114 -40 -181 -184 -144 -309 17 -56 100 -141 153 -155
94 -26 163 -7 230 62 78 80 96 176 51 272 -54 118 -174 171 -290 130z"/>
<path d="M2922 1400 c-67 -18 -178 -67 -209 -92 -7 -6 -13 -21 -13 -34 0 -40
34 -39 123 4 157 77 290 77 448 1 89 -43 119 -44 119 -3 0 25 -43 58 -118 91
-132 57 -225 66 -350 33z"/>
</g>
</svg>
